HIERARCHY
ROOT SpineBase
{
  OFFSET 0.000000 0.000000 0.000000
  CHANNELS 6 Xposition Yposition Zposition Zrotation Xrotation Yrotation
  JOINT SpineMid
  {
    OFFSET 0.000000 29.359667 0.000000
    CHANNELS 3 Zrotation Xrotation Yrotation
    JOINT SpineShoulder
    {
      OFFSET -0.121547 21.827260 -0.660252
      CHANNELS 3 Zrotation Xrotation Yrotation
      JOINT Neck
      {
        OFFSET -0.034120 7.224924 -0.576572
        CHANNELS 3 Zrotation Xrotation Yrotation
        JOINT Head
        {
          OFFSET -4.834188 10.951959 4.455703
          CHANNELS 3 Zrotation Xrotation Yrotation
          End Site
          {
            OFFSET 0 0 0
          }
        }
      }
      JOINT ShoulderLeft
      {
        OFFSET -10.970019 -3.777341 9.119765
        CHANNELS 3 Zrotation Xrotation Yrotation
        JOINT ElbowLeft
        {
          OFFSET 16.345486 -19.405932 5.454899
          CHANNELS 3 Zrotation Xrotation Yrotation
          JOINT WristLeft
          {
            OFFSET -9.090131 -13.471774 -21.631737
            CHANNELS 3 Zrotation Xrotation Yrotation
            JOINT HandLeft
            {
              OFFSET 0.023420 -6.755362 -3.755370
              CHANNELS 3 Zrotation Xrotation Yrotation
              JOINT HandTipLeft
              {
                OFFSET -5.246336 -5.441391 -4.968376
                CHANNELS 3 Zrotation Xrotation Yrotation
                End Site
                {
                  OFFSET 0 0 0
                }
              }
              JOINT ThumbLeft
              {
                OFFSET 2.781567 -3.120406 -0.798424
                CHANNELS 3 Zrotation Xrotation Yrotation
                End Site
                {
                  OFFSET 0 0 0
                }
              }
            }
          }
        }
      }
      JOINT ShoulderRight
      {
        OFFSET 0.822076 -5.247026 -12.920190
        CHANNELS 3 Zrotation Xrotation Yrotation
        JOINT ElbowRight
        {
          OFFSET -6.037669 -21.558971 -5.434077
          CHANNELS 3 Zrotation Xrotation Yrotation
          JOINT WristRight
          {
            OFFSET -5.301490 -24.011196 2.924982
            CHANNELS 3 Zrotation Xrotation Yrotation
            JOINT HandRight
            {
              OFFSET -1.516099 -8.744247 1.877502
              CHANNELS 3 Zrotation Xrotation Yrotation
              JOINT HandTipRight
              {
                OFFSET -2.789743 -7.493212 0.271479
                CHANNELS 3 Zrotation Xrotation Yrotation
                End Site
                {
                  OFFSET 0 0 0
                }
              }
              JOINT ThumbRight
              {
                OFFSET 4.717983 -0.013416 1.047022
                CHANNELS 3 Zrotation Xrotation Yrotation
                End Site
                {
                  OFFSET 0 0 0
                }
              }
            }
          }
        }
      }
    }
  }
  JOINT HipLeft
  {
    OFFSET -2.849723 1.415517 0.368519
    CHANNELS 3 Zrotation Xrotation Yrotation
    JOINT KneeLeft
    {
      OFFSET 9.007212 -35.080228 12.379239
      CHANNELS 3 Zrotation Xrotation Yrotation
      JOINT AnkleLeft
      {
        OFFSET 2.858968 -37.953381 2.173473
        CHANNELS 3 Zrotation Xrotation Yrotation
        JOINT FootLeft
        {
          OFFSET -6.819787 -5.450244 -7.304359
          CHANNELS 3 Zrotation Xrotation Yrotation
          End Site
          {
            OFFSET 0 0 0
          }
        }
      }
    }
  }
  JOINT HipRight
  {
    OFFSET 3.299030 0.376864 -7.012945
    CHANNELS 3 Zrotation Xrotation Yrotation
    JOINT KneeRight
    {
      OFFSET -5.060702 -33.354076 0.819305
      CHANNELS 3 Zrotation Xrotation Yrotation
      JOINT AnkleRight
      {
        OFFSET 5.628094 -37.765560 4.697101
        CHANNELS 3 Zrotation Xrotation Yrotation
        JOINT FootRight
        {
          OFFSET 8.466491 0.047002 -11.862887
          CHANNELS 3 Zrotation Xrotation Yrotation
          End Site
          {
            OFFSET 0 0 0
          }
        }
      }
    }
  }
}
MOTION
Frames: 13
Frame Time: 0.033333
-30.261087 82.504007 360.618205 2.801030 3.179919 47.601487 -0.336456 0.289775 -47.600514 -0.183333 0.442478 0.088567 -3.351465 9.452239 5.809565 0.000000 0.000000 0.000000 -2.187524 -3.561876 -0.258825 3.153361 -0.006293 -5.152984 3.759950 6.606462 0.751144 0.654984 -15.232490 7.839154 0.000000 0.000000 0.000000 0.000000 0.000000 0.000000 1.948759 -1.556738 -1.688678 -3.020985 3.716191 0.376400 9.595056 -13.357475 6.469582 0.045297 1.768124 -1.012721 0.000000 0.000000 0.000000 0.000000 0.000000 0.000000 3.178280 6.519749 -45.439862 0.110174 -9.328128 -2.517340 -43.997856 -22.414362 58.401846 0.000000 0.000000 0.000000 0.082435 1.728769 -48.376535 -0.371439 -2.077779 1.133576 -22.905884 -74.088469 42.471953 0.000000 0.000000 0.000000
-30.916593 82.051347 362.205888 2.762274 3.449042 43.876168 -0.381489 0.262235 -43.881868 -0.180108 0.469465 0.085430 -2.196405 9.814184 5.561028 0.000000 0.000000 0.000000 -2.136663 -3.835950 -0.259543 3.706342 -0.069418 -6.036491 2.976028 4.474683 1.912247 -2.317992 -10.536418 6.757194 0.000000 0.000000 0.000000 0.000000 0.000000 0.000000 3.514226 -1.629195 -2.052491 -4.587554 4.653854 0.505549 10.841687 -15.835469 7.770423 -2.334062 5.915562 -2.602418 0.000000 0.000000 0.000000 0.000000 0.000000 0.000000 5.666655 12.829794 -41.370969 3.103628 -15.577701 -2.798142 -66.297797 -11.107425 55.823212 0.000000 0.000000 0.000000 1.664232 2.341599 -44.977237 -0.863994 -2.528492 1.626711 -86.578454 -74.565410 -30.037429 0.000000 0.000000 0.000000
-31.478036 81.475103 363.798728 2.849501 3.821951 37.794310 -0.363609 0.244120 -37.808357 -0.187246 0.500267 0.088074 0.593351 9.056261 4.128811 0.000000 0.000000 0.000000 -2.238562 -4.284407 -0.281840 4.695814 -1.203042 -6.985978 2.638879 4.967865 2.381123 -1.384584 -10.229554 6.208678 0.000000 0.000000 0.000000 0.000000 0.000000 0.000000 4.785382 -2.108639 -2.300759 -6.002933 4.786839 0.779630 11.682176 -15.443023 8.049209 -5.969997 7.432749 -3.126104 0.000000 0.000000 0.000000 0.000000 0.000000 0.000000 5.944868 18.813012 -35.014732 6.085302 -20.331757 -2.454657 -81.754199 6.337953 52.027274 0.000000 0.000000 0.000000 1.744810 3.809979 -39.240808 0.559731 -2.482113 2.353590 -106.989028 -66.678306 -55.793773 0.000000 0.000000 0.000000
-32.295324 80.887640 365.792774 2.725730 4.164662 31.584389 -0.322862 0.239883 -31.604524 -0.183152 0.553721 0.082815 3.487261 6.908603 2.332656 0.000000 0.000000 0.000000 -2.156194 -4.746226 -0.282976 5.862143 -2.927290 -7.879569 3.401755 8.172711 1.682566 -1.632734 -11.895895 6.279573 0.000000 0.000000 0.000000 0.000000 0.000000 0.000000 6.447053 -2.826825 -2.465027 -7.884273 5.100686 1.031754 11.494171 -13.486444 7.417709 -6.490659 6.771079 -3.300936 0.000000 0.000000 0.000000 0.000000 0.000000 0.000000 4.979805 23.360045 -28.213195 8.479817 -23.543026 -1.892300 -90.184209 19.797891 49.904215 0.000000 0.000000 0.000000 1.229658 5.688514 -33.399461 3.152826 -2.516612 3.334775 -86.667749 -74.804713 -27.275931 0.000000 0.000000 0.000000
-33.350719 80.394785 368.027772 2.422860 4.459989 29.031553 -0.328799 0.230000 -29.055395 -0.186354 0.580312 0.067890 6.461357 4.550032 0.620610 0.000000 0.000000 0.000000 -1.850547 -5.076193 -0.252842 7.066615 -4.994193 -8.630134 3.929652 12.895716 0.635975 -1.176787 -14.541539 5.771931 0.000000 0.000000 0.000000 0.000000 0.000000 0.000000 8.252300 -3.351805 -2.596829 -9.655084 5.102529 1.341080 11.382101 -11.648621 6.828274 -7.277150 7.255362 -3.871014 0.000000 0.000000 0.000000 0.000000 0.000000 0.000000 5.299270 25.781862 -25.054672 9.106798 -25.027750 -1.916446 -91.590760 33.875273 44.976920 0.000000 0.000000 0.000000 0.641742 7.183943 -31.117359 6.144587 -2.181597 4.375676 -46.590307 -75.535264 20.180913 0.000000 0.000000 0.000000
-34.387927 79.780654 369.952011 2.158949 4.898884 26.589575 -0.283584 0.218860 -26.615408 -0.173120 0.587271 0.058585 8.541602 1.411579 -0.879865 0.000000 0.000000 0.000000 -1.647341 -5.550324 -0.236663 8.243799 -7.202472 -9.239983 12.115891 17.848425 -6.305943 -6.929737 -19.720470 11.407195 0.000000 0.000000 0.000000 0.000000 0.000000 0.000000 9.432603 -4.236692 -2.513779 -11.020316 5.272808 1.495853 10.798175 -10.225065 6.135075 -6.618518 6.342601 -3.717522 0.000000 0.000000 0.000000 0.000000 0.000000 0.000000 5.079898 25.251234 -22.035532 8.222466 -23.537032 -2.419495 -82.887216 45.392798 33.856385 0.000000 0.000000 0.000000 -0.812884 8.358964 -28.832516 9.946164 -1.456248 5.472476 -18.332706 -65.315598 56.457455 0.000000 0.000000 0.000000
-35.317352 79.583567 372.022257 1.988973 5.057031 31.565076 -0.279152 0.263552 -31.592853 -0.162133 0.612027 0.050645 10.736671 -1.862303 -2.498061 0.000000 0.000000 0.000000 -1.463041 -5.743712 -0.216454 9.079653 -9.296420 -9.274658 9.511890 26.207188 -6.490147 4.101482 -25.986861 7.670475 0.000000 0.000000 0.000000 0.000000 0.000000 0.000000 10.906334 -5.280141 -2.343242 -12.857160 6.406299 1.536573 9.096556 -10.016532 5.391305 -3.388523 5.772950 -3.370188 0.000000 0.000000 0.000000 0.000000 0.000000 0.000000 8.227154 21.457076 -27.017464 5.004604 -19.811518 -3.838825 -65.052386 50.174304 17.309755 0.000000 0.000000 0.000000 -1.280291 9.347257 -33.913192 13.165870 -0.489578 6.239935 -12.518080 -51.739497 67.647644 0.000000 0.000000 0.000000
-36.810123 79.909634 374.045514 1.286172 5.303530 34.937219 -0.134215 0.137725 -34.942844 -0.123556 0.632151 0.031945 12.167166 -4.704534 -3.516776 0.000000 0.000000 0.000000 -0.983185 -5.969847 -0.157302 9.789621 -10.820309 -9.477117 15.623400 30.748047 -12.756397 11.926856 -30.529039 8.614541 0.000000 0.000000 0.000000 0.000000 0.000000 0.000000 13.119818 -5.850379 -2.371030 -15.541049 7.583522 1.632962 7.637348 -8.711321 4.508193 -1.495861 2.853360 -2.253398 0.000000 0.000000 0.000000 0.000000 0.000000 0.000000 10.225309 20.638670 -30.338194 5.013603 -18.787032 -3.878658 -40.035623 56.786620 -9.428160 0.000000 0.000000 0.000000 0.281073 9.675086 -37.493232 14.345033 -0.571768 6.939235 -11.954452 -40.274086 71.337281 0.000000 0.000000 0.000000
-37.872828 80.796079 375.953435 1.186900 5.413971 39.838151 -0.270117 0.344973 -39.861074 -0.115077 0.696406 0.017589 11.792219 -6.873959 -3.857232 0.000000 0.000000 0.000000 -0.649312 -6.201122 -0.115806 10.199129 -11.459554 -9.782458 12.019332 35.274799 -10.711930 24.582288 -34.406237 8.444227 0.000000 0.000000 0.000000 0.000000 0.000000 0.000000 15.130070 -6.311143 -2.431725 -17.522077 8.398022 1.842972 5.651173 -8.289067 3.714172 1.781937 6.051302 -3.438414 0.000000 0.000000 0.000000 0.000000 0.000000 0.000000 12.791388 19.202944 -35.085746 3.258620 -17.073676 -4.778894 -4.112520 48.942442 -43.934309 0.000000 0.000000 0.000000 1.752040 9.948544 -42.627135 14.601595 -0.688710 7.340496 -11.952842 -32.547332 72.561842 0.000000 0.000000 0.000000
-38.840374 82.118233 377.481453 0.939381 5.306251 45.770350 -0.232495 0.465793 -45.793387 -0.068683 0.791052 0.009708 11.554454 -7.547383 -3.883748 0.000000 0.000000 0.000000 -0.378290 -6.254999 -0.080080 10.217494 -11.146071 -10.070622 -0.796273 38.715655 -0.318933 38.531572 -36.591658 2.140824 0.000000 0.000000 0.000000 0.000000 0.000000 0.000000 17.272763 -6.803713 -2.471621 -19.098096 9.904219 2.021723 2.714870 -7.708951 2.669281 6.764535 6.730395 -3.525927 0.000000 0.000000 0.000000 0.000000 0.000000 0.000000 15.716758 18.144647 -40.962643 2.606622 -16.047970 -5.209106 5.706859 33.207003 -48.854146 0.000000 0.000000 0.000000 3.696549 8.985022 -48.595384 13.386774 -0.536246 7.184049 -11.550481 -28.429502 72.655525 0.000000 0.000000 0.000000
-39.654601 83.307595 379.246513 0.927122 5.251157 48.585145 -0.204141 0.549190 -48.611572 -0.050044 0.834120 0.009335 8.974907 -11.137034 -4.467029 0.000000 0.000000 0.000000 -0.333221 -6.294893 -0.074348 10.621599 -11.255303 -10.795812 -19.904910 40.094466 15.394119 58.169324 -39.591788 -5.055651 0.000000 0.000000 0.000000 0.000000 0.000000 0.000000 19.490331 -6.939344 -2.740179 -20.391206 12.034768 2.107661 -0.417705 -9.826164 2.092071 10.164218 6.455977 -2.892873 0.000000 0.000000 0.000000 0.000000 0.000000 0.000000 16.437277 17.970878 -44.048868 4.109832 -13.929387 -4.421913 9.317772 18.794254 -48.112442 0.000000 0.000000 0.000000 6.179906 8.305814 -51.638964 10.790072 -1.485831 7.126010 -10.512939 -24.850624 72.306809 0.000000 0.000000 0.000000
-40.275388 84.327968 380.634905 0.916492 5.220391 49.476650 -0.129929 0.549923 -49.499765 -0.040247 0.862123 0.011981 7.558822 -13.171829 -4.910165 0.000000 0.000000 0.000000 -0.377545 -6.340456 -0.080659 10.965722 -11.032892 -11.664677 -38.245189 33.351431 30.390479 65.771363 -36.551260 -21.188304 0.000000 0.000000 0.000000 0.000000 0.000000 0.000000 21.366970 -7.228041 -2.905541 -21.320756 13.544074 2.260809 -2.666592 -8.593201 1.212393 14.337469 2.940718 -1.020847 0.000000 0.000000 0.000000 0.000000 0.000000 0.000000 16.141144 18.358694 -45.345325 6.663578 -11.983949 -3.107824 10.110052 8.199416 -45.865206 0.000000 0.000000 0.000000 8.978037 6.865946 -52.620418 6.443969 -2.458980 6.632561 -9.068527 -28.897632 71.057795 0.000000 0.000000 0.000000
-40.664574 85.178034 381.582026 1.017426 5.368458 48.863980 -0.107698 0.540981 -48.888323 -0.066608 0.829628 0.013821 5.919845 -15.634180 -5.523671 0.000000 0.000000 0.000000 -0.477217 -6.472076 -0.095235 11.380626 -11.172097 -12.398079 -50.918674 25.681197 39.957592 73.032923 -38.140676 -21.950671 0.000000 0.000000 0.000000 0.000000 0.000000 0.000000 22.869205 -7.536735 -3.018278 -21.829979 14.637651 2.405062 -4.021505 -6.438617 0.534391 17.036409 0.381234 0.415395 0.000000 0.000000 0.000000 0.000000 0.000000 0.000000 14.633185 19.501586 -45.394140 10.771205 -10.337649 -1.046578 6.317079 -0.269254 -39.196297 0.000000 0.000000 0.000000 10.623920 6.052439 -52.060153 3.371769 -3.191061 6.217660 -8.242942 -32.941988 69.463843 0.000000 0.000000 0.000000
